SplineFontDB: 3.0
FontName: Neuton-Hebrew
FullName: Neuton Hebrew
FamilyName: Neuton
Weight: Medium
Copyright: Copyright (c) 2010, 2011 Brian M Zick (http://21326.info/), \nwith Reserved Font Name 'Neuton'.\n\nThis Font Software is licensed under the SIL Open Font License, Version 1.1.\nThis license is available with a FAQ at: http://scripts.sil.org/OFL\n   WITHOUT WARRANTIES OR CONDITIONS OF ANY KIND, either express or implied.\n   See the License for the specific language governing permissions and\n   limitations under the License.
UComments: "2011-9-18: Created." 
Version: 1.44
ItalicAngle: 0
UnderlinePosition: -205
UnderlineWidth: 102
Ascent: 1638
Descent: 410
LayerCount: 2
Layer: 0 0 "Back"  1
Layer: 1 0 "Fore"  0
NeedsXUIDChange: 1
XUID: [1021 467 2011608612 16390363]
FSType: 1
OS2Version: 0
OS2_WeightWidthSlopeOnly: 0
OS2_UseTypoMetrics: 1
CreationTime: 1316368968
ModificationTime: 1323106092
PfmFamily: 17
TTFWeight: 500
TTFWidth: 5
LineGap: 0
VLineGap: 184
OS2TypoAscent: 2106
OS2TypoAOffset: 0
OS2TypoDescent: -485
OS2TypoDOffset: 0
OS2TypoLinegap: 0
OS2WinAscent: 2106
OS2WinAOffset: 0
OS2WinDescent: 485
OS2WinDOffset: 0
HheadAscent: 2106
HheadAOffset: 0
HheadDescent: -485
HheadDOffset: 0
OS2Vendor: 'PfEd'
MarkAttachClasses: 1
DEI: 91125
Encoding: UnicodeBmp
Compacted: 1
UnicodeInterp: none
NameList: Adobe Glyph List
DisplaySize: -96
AntiAlias: 1
FitToEm: 0
WidthSeparation: 100
WinInfo: 12 12 6
BeginPrivate: 0
EndPrivate
Grid
-2048 186 m 0
 4096 186 l 0
-2048 853.333 m 0
 4096 853.333 l 0
-2048 1038 m 0
 4096 1038 l 0
-2048 1147.33 m 0
 4096 1147.33 l 0
-2048 -378 m 0
 4096 -378 l 0
EndSplineSet
BeginChars: 65539 83

StartChar: alef
Encoding: 1488 1488 0
Width: 1130
VWidth: 0
Flags: HMW
LayerCount: 2
Back
SplineSet
882 773 m 2
 883.12 964.992 834.96 1039 742 1039 c 2
 299 1039 l 2
 199 1039 175.376 1082.18 146 1144 c 1
 81 1135 l 1
 51 892.333 l 1
 108 853.333 l 1
 698 853.333 l 2
 768 853 788 787.747 788 642 c 2
 788 6 l 1
 808 -11 l 1
 877 0 l 1
 882 773 l 2
94 15 m 1
 94 514 l 1
 183 569 l 1
 217 558 l 1
 217 372.538 217 210.731 214 30 c 1
 128 -19 l 1
 94 15 l 1
EndSplineSet
Fore
SplineSet
811 701 m 1
 750.944 660.488 694.325 579.465 698 433 c 1
 716 391 l 1
 579 493 l 1
 606 493 l 1
 640 563.835 745 727.937 745 786 c 1
 726 832 645.063 897.695 610 938 c 1
 732 1122 l 1
 763 1126.33 l 1
 773.339 1097.91 793 1074 819 1047.85 c 2
 978 891 l 2
 1026.32 843.329 984 744 930 664 c 1
 885 703 846 703 811 701 c 1
197 1117 m 1
 232 1124 l 1
 235 1074 261 1029 290 995 c 2
 990 161 l 1
 908 -8 l 1
 882 -12 l 1
 74 926 l 17
 73 957 l 1
 197 1117 l 1
354 694 m 1
 248.508 646.182 136.062 475.358 244 352 c 0
 349 232 390.535 186 390.535 105.373 c 0
 390.535 43 352 5.7699e-06 286 0 c 10
 70 0 l 1
 65 58 l 1
 155 106 l 1
 155 117 l 1
 111.415 234.167 89 300.123 89 390 c 0
 89 474.015 132 541.768 261 764 c 1
 354 694 l 1
EndSplineSet
Colour: ff00ff
EndChar

StartChar: bet
Encoding: 1489 1489 1
Width: 912
VWidth: 0
Flags: HMW
LayerCount: 2
Back
SplineSet
198.461 1098.25 m 6
 621.961 1098.25 l 6
 643.778 1098.25 669.124 1092.47 697.999 1080.92 c 132
 726.874 1069.37 749.011 1049.48 764.411 1021.25 c 4
 805.478 945.532 826.011 828.748 826.011 670.898 c 4
 826.011 519.465 793.286 375.09 727.836 237.773 c 4
 726.552 233.924 726.873 229.432 728.799 224.299 c 132
 730.724 219.165 733.611 216.599 737.461 216.599 c 6
 876.062 216.599 l 6
 896.595 216.599 909.107 212.428 913.599 204.086 c 132
 918.091 195.744 917.128 184.515 910.711 170.398 c 5
 858.736 -18.251 l 6
 854.886 -33.6509 849.753 -43.9175 843.336 -49.0508 c 132
 836.919 -54.1842 824.086 -56.751 804.836 -56.751 c 6
 65.6357 -56.751 l 6
 46.3858 -56.751 34.5151 -52.5801 30.0234 -44.2383 c 132
 25.5304 -35.8967 25.8514 -24.0259 30.9863 -8.62598 c 6
 82.9609 191.574 l 6
 86.8111 201.841 91.303 208.578 96.4365 211.786 c 132
 101.57 214.994 110.553 216.599 123.386 216.599 c 6
 552.661 216.599 l 6
 595.011 216.599 620.678 221.732 629.661 231.999 c 4
 647.628 249.966 662.386 285.899 673.937 339.799 c 132
 685.486 393.699 691.261 452.732 691.261 516.898 c 4
 691.261 622.132 677.144 699.132 648.911 747.898 c 5
 616.828 799.232 562.286 824.898 485.286 824.898 c 6
 213.861 824.898 l 6
 158.678 824.898 117.932 838.374 91.624 865.324 c 132
 65.3154 892.274 52.1611 934.624 52.1611 992.374 c 4
 52.1611 1037.29 61.1445 1080.92 79.1113 1123.27 c 132
 97.0778 1165.62 118.253 1186.8 142.636 1186.8 c 4
 152.903 1186.8 158.999 1184.87 160.924 1181.02 c 132
 162.848 1177.17 163.168 1170.44 161.886 1160.81 c 132
 160.603 1151.19 159.961 1143.17 159.961 1136.75 c 5
 162.528 1126.48 167.661 1117.5 175.361 1109.8 c 132
 183.061 1102.1 190.761 1098.25 198.461 1098.25 c 6
EndSplineSet
Fore
SplineSet
42 206 m 1
 603 206 l 1
 652.088 234.471 695.122 386.077 695.122 533.066 c 0
 695.122 726 651.402 833 525 833 c 2
 131 833 l 1
 78 872 l 1
 109 1133 l 1
 174 1148 l 1
 200 1066 227 1038 341 1038 c 2
 581 1038 l 2
 754.154 1038 805.27 968 805.27 644.165 c 0
 805.27 469.318 768.957 300.581 696 212 c 9
 884 212 l 1
 849 0 l 1
 57 -12 l 1
 34 4 l 1
 42 206 l 1
EndSplineSet
Colour: ffffff
EndChar

StartChar: gimel
Encoding: 1490 1490 2
Width: 656
VWidth: 0
Flags: HMW
LayerCount: 2
Back
SplineSet
42 206 m 5
 653 206 l 5
 683.454 295.97 692 355.25 692 509 c 4
 692 732.012 650.375 833 575 833 c 6
 131 833 l 5
 78 872 l 5
 109 1133 l 5
 174 1148 l 5
 200 1066 227 1038 341 1038 c 6
 641 1038 l 6
 739 1038 789 967 789 643 c 4
 789 455.855 776.81 307.598 736 212 c 13
 874 208 l 5
 849 0 l 5
 57 -12 l 5
 34 4 l 5
 42 206 l 5
EndSplineSet
Fore
SplineSet
460.341 277 m 21
 423.123 204.323 251.346 12.7203 178.341 -6 c 5
 49.3408 -6 l 5
 30 19 l 5
 46.3408 212 l 5
 143.341 212 l 21
 219.319 219.117 383.868 260 431.341 357 c 5
 460.341 277 l 21
429.341 228 m 5
 424.341 612 l 6
 421.89 778.196 383.426 837 294.341 837 c 6
 132.341 837 l 5
 91.3408 870 l 5
 122.341 1136 l 5
 189.341 1143 l 5
 203 1084 227.812 1042 298.341 1042 c 6
 343.341 1042 l 6
 442.929 1042 513.341 967 513.341 799 c 6
 513.341 382 l 5
 528.498 300 586.961 210.152 644.341 168 c 5
 524.341 -12 l 5
 486.341 0 l 5
 455.341 228 l 5
 429.341 228 l 5
EndSplineSet
Colour: ffffff
EndChar

StartChar: dalet
Encoding: 1491 1491 3
Width: 889
VWidth: 0
Flags: HMW
LayerCount: 2
Back
SplineSet
12 206 m 5
 623 206 l 5
 653.454 295.97 662 355.25 662 509 c 4
 662 732.012 620.375 833 545 833 c 6
 101 833 l 5
 48 872 l 5
 79 1133 l 5
 144 1148 l 5
 170 1066 197 1038 311 1038 c 6
 611 1038 l 6
 709 1038 759 967 759 643 c 4
 759 455.855 746.81 307.598 706 212 c 13
 844 208 l 5
 819 0 l 5
 27 -12 l 5
 4 4 l 5
 12 206 l 5
EndSplineSet
Fore
SplineSet
263 1038 m 2
 828 1038 l 1
 835 863 l 1
 815.942 857 752.347 824 727 784 c 1
 742 450 l 2
 748 318 763.584 223.396 788 129 c 1
 675 -12 l 1
 635 18 l 1
 647 833.333 l 1
 72 833.333 l 1
 9 871 l 1
 42 1127 l 1
 107 1149 l 1
 136.952 1083.64 158.168 1038 263 1038 c 2
EndSplineSet
Colour: ffffff
EndChar

StartChar: he
Encoding: 1492 1492 4
Width: 938
VWidth: 0
Flags: HMW
LayerCount: 2
Back
SplineSet
118.5 801.5 m 1
 43.8333 816.667 6.5 868 6.5 955.5 c 0
 6.5 997.5 14.6667 1037.17 31 1074.5 c 128
 47.3333 1111.83 66.5833 1130.5 88.75 1130.5 c 0
 98.0833 1130.5 103.625 1128.75 105.375 1125.25 c 128
 107.125 1121.75 107.125 1115.33 105.375 1106 c 128
 103.625 1096.65 103.333 1089.07 104.5 1083.25 c 0
 105.667 1075.08 110.042 1067.5 117.625 1060.5 c 128
 125.208 1053.5 132.5 1050 139.5 1050 c 2
 767.75 1050 l 2
 805.083 1050 823.75 1026.67 823.75 980 c 2
 823.75 833 l 2
 823.75 816.667 822.292 805.875 819.375 800.625 c 128
 816.458 795.375 812.958 792.75 808.875 792.75 c 128
 804.792 792.75 798.958 789.542 791.375 783.125 c 128
 783.792 776.708 776.5 765.333 769.5 749 c 1
 755.5 697.667 751.125 643.417 756.375 586.25 c 128
 761.625 529.083 769.792 456.75 780.875 369.25 c 128
 791.96 281.75 796.918 221.083 795.75 187.25 c 0
 792.25 120.75 774.167 71.1666 741.5 38.5 c 0
 722.833 19.8333 700.958 6.70833 675.875 -0.875 c 128
 650.792 -8.45833 634.167 -5.83333 626 7 c 1
 622.5 7 621.625 12.5417 623.375 23.625 c 128
 625.125 34.7083 627.167 44.3333 629.5 52.5 c 128
 631.833 60.6667 634.458 84.2917 637.375 123.375 c 128
 640.292 162.458 641.75 210 641.75 266 c 0
 641.75 285.833 639.708 345.333 635.625 444.5 c 128
 631.542 543.667 632.417 601.417 638.25 617.75 c 1
 641.75 657.417 646.125 687.167 651.375 707 c 128
 656.625 726.833 663.625 742 672.375 752.5 c 128
 681.125 763 686.083 769.417 687.25 771.75 c 0
 690.75 781.083 689.583 788.375 683.75 793.625 c 128
 677.917 798.875 668 801.5 654 801.5 c 2
 339 801.5 l 1
 290 800.333 255 782.833 234 749 c 0
 216.5 719.833 206.875 669.666 205.125 598.5 c 128
 203.375 527.333 205.417 448.291 211.25 361.375 c 128
 217.083 274.458 219.417 216.417 218.25 187.25 c 0
 214.75 120.75 196.667 71.1666 164 38.5 c 0
 145.333 19.8333 123.458 6.70833 98.375 -0.875 c 128
 73.2917 -8.45833 56.6667 -5.83333 48.5 7 c 0
 47.3333 10.5 46.4583 13.4167 45.875 15.75 c 128
 45.292 18.0833 45.292 21 45.875 24.5 c 128
 46.4583 28 47.625 32.0833 49.375 36.75 c 128
 51.125 41.4167 52.875 49.5833 54.625 61.25 c 128
 56.375 72.9167 57.8333 86.625 59 102.375 c 128
 60.1667 118.125 61.3333 140.292 62.5 168.875 c 128
 63.6667 197.458 64.25 229.833 64.25 266 c 0
 64.25 416.5 67.1667 526.167 73 595 c 0
 76.5 635.835 83.7917 669.668 94.875 696.5 c 128
 105.958 723.333 116.458 742.583 126.375 754.25 c 128
 136.292 765.917 141.25 773.5 141.25 777 c 0
 143.583 791 136 799.167 118.5 801.5 c 1
221 621 m 0
 221 555.667 222.667 484.167 226 406.5 c 128
 229.333 328.833 231 280.666 231 262 c 0
 231 212 222.333 169.667 205 135 c 128
 187.667 100.333 156.667 58.6667 112 10 c 0
 100.666 -2 88.3329 -9.66667 75 -13 c 1
 45 -18 l 2
 33.6667 -19.3333 27.1667 -18.6667 25.5 -16 c 128
 23.8333 -13.3333 23 -6.66667 23 4 c 0
 23 66.6667 37.3333 186.833 66 364.5 c 128
 94.6667 542.167 109 683.667 109 789 c 0
 109 811.667 104.5 829.167 95.5 841.5 c 128
 86.5 853.833 76.6667 860 66 860 c 2
 49 860 l 2
 35.6667 860 25.1667 864 17.5 872 c 128
 9.83288 880 7.66621 890 11 902 c 2
 75 1132 l 1
 79 1143.35 86.1667 1152.68 96.5 1160 c 128
 106.833 1167.33 116.667 1171 126 1171 c 0
 134.667 1171 139 1168 139 1162 c 0
 139 1142 142.5 1120.33 149.5 1097 c 128
 156.5 1073.67 164.667 1057.67 174 1049 c 1
 994 1049 l 2
 1007.35 1049 1016.18 1046.5 1020.5 1041.5 c 128
 1024.83 1036.5 1025.67 1026.67 1023 1012 c 2
 1006 921 l 2
 1002 903 997.333 889.5 992 880.5 c 128
 986.667 871.5 981.5 865.667 976.5 863 c 128
 971.5 860.333 966.333 857.167 961 853.5 c 128
 955.667 849.833 950.333 841.667 945 829 c 128
 939.667 816.333 935 798 931 774 c 0
 923 731.333 919 683.333 919 630 c 0
 919 578.667 926.333 507.5 941 416.5 c 128
 955.667 325.5 963 253.333 963 200 c 0
 963 166.667 955.833 135.667 941.5 107 c 128
 927.167 78.3333 907.333 47.3333 882 14 c 0
 871.333 0 854 -10.6667 830 -18 c 1
 817 -18 l 1
 805.665 -20.6666 798.832 -20.8333 796.5 -18.5 c 128
 794.167 -16.1667 793 -10 793 0 c 0
 793 46.6667 793.5 142.5 794.5 287.5 c 128
 795.5 432.5 796 598.333 796 785 c 0
 796 811 789.833 830 777.5 842 c 128
 765.167 854 742 860 708 860 c 2
 340 860 l 2
 316.667 860 296.667 852.167 280 836.5 c 128
 263.333 820.833 251 800 243 774 c 128
 235 748 229.333 722.667 226 698 c 128
 222.667 673.333 221 647.667 221 621 c 0
EndSplineSet
Fore
SplineSet
862 773 m 6
 863.12 964.992 814.96 1039 722 1039 c 6
 279 1039 l 6
 179 1039 155.376 1082.18 126 1144 c 5
 61 1135 l 5
 31 872.333 l 5
 88 833.333 l 5
 678 833.333 l 6
 748 833.031 768 773.954 768 642 c 6
 768 6 l 5
 788 -11 l 5
 857 0 l 5
 862 773 l 6
74 15 m 5
 74 514 l 5
 163 569 l 5
 197 558 l 5
 197 372.538 197 210.731 194 30 c 5
 108 -19 l 5
 74 15 l 5
EndSplineSet
Colour: ffffff
EndChar

StartChar: vav
Encoding: 1493 1493 5
Width: 463
VWidth: 0
Flags: HMW
LayerCount: 2
Back
SplineSet
902 773 m 6
 903.12 964.992 854.96 1039 762 1039 c 6
 319 1039 l 6
 219 1039 195.376 1082.18 166 1144 c 5
 101 1135 l 5
 71 872.333 l 5
 128 833.333 l 5
 718 833.333 l 6
 788 833.031 808 773.954 808 642 c 6
 808 6 l 5
 828 -11 l 5
 897 0 l 5
 902 773 l 6
114 15 m 5
 114 514 l 5
 203 569 l 5
 237 558 l 5
 237 372.538 237 210.731 234 30 c 5
 148 -19 l 5
 114 15 l 5
EndSplineSet
Fore
SplineSet
303 1008 m 6
 380 973 429.708 942.668 429 773 c 6
 424 0 l 5
 355 -11 l 5
 335 6 l 5
 335 642 l 6
 335 734.861 285.45 772.89 225 795 c 2
 91 850 l 1
 71 879 l 1
 99 1132 l 1
 164 1148 l 1
 190.705 1062.86 212 1050 258 1029 c 2
 303 1008 l 6
EndSplineSet
Colour: ffffff
EndChar

StartChar: zayin
Encoding: 1494 1494 6
Width: 468
VWidth: 0
Flags: HMW
LayerCount: 2
Back
SplineSet
857 773 m 6
 858.12 964.992 809.96 1039 717 1039 c 6
 274 1039 l 6
 174 1039 150.376 1082.18 121 1144 c 5
 56 1135 l 5
 26 872.333 l 5
 83 833.333 l 5
 673 833.333 l 6
 743 833.031 763 773.954 763 642 c 6
 763 6 l 5
 783 -11 l 5
 852 0 l 5
 857 773 l 6
69 15 m 5
 69 514 l 5
 158 569 l 5
 192 558 l 5
 192 372.538 192 210.731 189 30 c 5
 103 -19 l 5
 69 15 l 5
EndSplineSet
Fore
SplineSet
304 804 m 17
 278.884 774.723 259 737.889 259 634 c 0
 259 508.869 326.118 255.09 369 120 c 1
 258 -22 l 1
 218 6 l 1
 178.5 160.558 139 391.86 139 572 c 5
 159 645 216 783 241 824 c 9
 241 824 279.836 812 304 804 c 17
59 858 m 1
 26 900 l 1
 49 1131 l 1
 113 1148 l 1
 130 1094 157.187 1063.27 215 1041 c 2
 337 994 l 2
 431 953.98 454 860.959 434 729 c 1
 374 761 301 785 261 752 c 1
 249 793 l 1
 59 858 l 1
EndSplineSet
Colour: ffffff
EndChar

StartChar: het
Encoding: 1495 1495 7
Width: 946
VWidth: 0
Flags: HMW
LayerCount: 2
Back
SplineSet
862 773 m 6
 863.12 964.992 814.96 1039 722 1039 c 6
 279 1039 l 6
 179 1039 155.376 1082.18 126 1144 c 5
 61 1135 l 5
 31 872.333 l 5
 88 833.333 l 5
 678 833.333 l 6
 748 833.031 768 773.954 768 642 c 6
 768 6 l 5
 788 -11 l 5
 857 0 l 5
 862 773 l 6
74 15 m 5
 74 514 l 5
 163 569 l 5
 197 558 l 5
 197 372.538 197 210.731 194 30 c 5
 108 -19 l 5
 74 15 l 5
EndSplineSet
Fore
SplineSet
289 1035 m 6
 904 1035 l 5
 912 863 l 5
 824 834 l 5
 839 450 l 5
 843 318 861 223 885 129 c 5
 772 -12 l 5
 732 18 l 5
 744 837 l 5
 213 837 l 5
 213 450 l 6
 213 323 229 223 248 129 c 5
 128 -12 l 5
 88 18 l 5
 138 756 l 6
 141.66 810.755 130 826.427 89 849 c 6
 26 888 l 5
 59 1127 l 5
 124 1146 l 5
 155.68 1080.64 178.12 1035 289 1035 c 6
EndSplineSet
Colour: ffffff
EndChar

StartChar: tet
Encoding: 1496 1496 8
Width: 919
VWidth: 0
Flags: HMW
LayerCount: 2
Back
SplineSet
324 1038 m 2
 735 1038 l 2
 824 1038 893 967 870 684 c 2
 830 196 l 18
 830 94.7979 808 1 759 0 c 10
 134 -12 l 1
 111 4 l 1
 68 532 l 22
 53 712 151 797.119 228 845 c 5
 331 845 l 5
 219.049 811.33 154 704 178 556 c 6
 218 306 l 2
 234.895 249 224 206 325 206 c 10
 641 206 l 18
 730 206 732.83 280 745 379 c 2
 773 630 l 2
 788 767 732 833 659 833 c 2
 114 833 l 1
 61 872 l 1
 92 1133 l 1
 157 1148 l 1
 183 1066 210 1038 324 1038 c 2
EndSplineSet
Fore
SplineSet
50 530 m 0
 50 672 111.213 796.813 168 845 c 1
 261 845 l 1
 187.098 812.378 160 724.862 160 565 c 0
 160 432.445 214 206 295 206 c 10
 641 206 l 18
 742 206 773.714 423.251 773.714 589 c 0
 773.714 731.822 722.106 853.333 652 853.333 c 0
 570.829 853.333 514.634 851.831 396 676 c 1
 346 698 l 1
 480.235 1016.44 540.526 1069 672 1069 c 0
 786.44 1069 870 999.565 870 578 c 1
 866.874 456.32 841 142 790 25 c 1
 759 0 l 9
 154 -12 l 1
 131 4 l 1
 88 151 50 323.88 50 530 c 0
323.341 819 m 9
 323.341 819 220.546 822 193 804 c 9
 190 831 l 1
 52.3408 837 l 1
 11.3408 870 l 1
 42.3408 1136 l 1
 109.341 1143 l 1
 120.494 1084 140.938 1043.9 198.341 1042 c 0
 319 1038 358 1003 323.341 819 c 9
EndSplineSet
Colour: ffffff
EndChar

StartChar: yod
Encoding: 1497 1497 9
Width: 443
VWidth: 0
Flags: HMW
LayerCount: 2
Fore
SplineSet
155 1057.33 m 2
 287 1032 l 2
 359.482 1018.09 421 972.816 421 837 c 0
 421 697.259 311.485 518.991 229 417 c 1
 149 461 l 1
 191.913 528.538 259 636.629 259 717 c 0
 259 779.276 236.678 806.652 167 819.33 c 2
 36 844.33 l 1
 0 885.33 l 1
 28 1139.33 l 1
 92 1149.33 l 1
 109.898 1083.5 116.049 1068.54 155 1057.33 c 2
EndSplineSet
Colour: ffffff
EndChar

StartChar: kef.final
Encoding: 1498 1498 10
Width: 845
VWidth: 0
Flags: HMW
LayerCount: 2
Back
SplineSet
862 773 m 6
 863.12 964.992 814.96 1039 722 1039 c 6
 279 1039 l 6
 179 1039 155.376 1082.18 126 1144 c 5
 61 1135 l 5
 31 872.333 l 5
 88 833.333 l 5
 678 833.333 l 6
 748 833.031 768 773.954 768 642 c 6
 768 6 l 5
 788 -11 l 5
 857 0 l 5
 862 773 l 6
74 15 m 5
 74 514 l 5
 163 569 l 5
 197 558 l 5
 197 372.538 197 210.731 194 30 c 5
 108 -19 l 5
 74 15 l 5
EndSplineSet
Fore
SplineSet
95 833 m 5
 42 872 l 5
 73 1133 l 5
 138 1148 l 5
 164 1066 191 1038 305 1038 c 6
 692 1038 l 17
 756.542 1021.06 808 951.059 808 780 c 2
 808 -370 l 1
 739 -381 l 1
 719 -364 l 1
 714 641 l 2
 712.875 731.156 654 833 596 833 c 10
 95 833 l 5
EndSplineSet
Colour: ffffff
EndChar

StartChar: kaf
Encoding: 1499 1499 11
Width: 845
VWidth: 0
Flags: HMW
LayerCount: 2
Back
SplineSet
862 773 m 6
 863.12 964.992 814.96 1039 722 1039 c 6
 279 1039 l 6
 179 1039 155.376 1082.18 126 1144 c 5
 61 1135 l 5
 31 872.333 l 5
 88 833.333 l 5
 678 833.333 l 6
 748 833.031 768 773.954 768 642 c 6
 768 6 l 5
 788 -11 l 5
 857 0 l 5
 862 773 l 6
74 15 m 5
 74 514 l 5
 163 569 l 5
 197 558 l 5
 197 372.538 197 210.731 194 30 c 5
 108 -19 l 5
 74 15 l 5
EndSplineSet
Fore
SplineSet
295 1038 m 6
 566 1038 l 6
 736 1038 816.011 852.716 811 494 c 4
 805 139.846 719 5.44853 500 0 c 14
 67 -12 l 5
 44 4 l 5
 52 206 l 5
 472 206 l 22
 679.323 206 714 326.977 714 500 c 4
 714 729.339 634.184 833 490 833 c 6
 85 833 l 5
 32 872 l 5
 63 1133 l 5
 128 1148 l 5
 154 1066 181 1038 295 1038 c 6
EndSplineSet
Colour: ffffff
EndChar

StartChar: lamed
Encoding: 1500 1500 12
Width: 900
VWidth: 0
Flags: HMWO
LayerCount: 2
Back
SplineSet
862 773 m 6
 863.12 964.992 814.96 1039 722 1039 c 6
 279 1039 l 6
 179 1039 155.376 1082.18 126 1144 c 5
 61 1135 l 5
 31 872.333 l 5
 88 833.333 l 5
 678 833.333 l 6
 748 833.031 768 773.954 768 642 c 6
 768 6 l 5
 788 -11 l 5
 857 0 l 5
 862 773 l 6
74 15 m 5
 74 514 l 5
 163 569 l 5
 197 558 l 5
 197 372.538 197 210.731 194 30 c 5
 108 -19 l 5
 74 15 l 5
EndSplineSet
Fore
SplineSet
135 1262 m 0
 135 1176.96 138 1080 147 1037 c 1
 600 1037 l 2
 805 1037 842 962 842 746 c 0
 842 477.145 770.143 275.091 566 158 c 2
 220 -21 l 1
 202 -3 l 1
 230 207 l 1
 514 341 l 2
 695.829 433.099 735 559.649 735 686 c 0
 735 805.415 691 830 526 830 c 2
 60 830 l 1
 30 873 l 1
 30 1038.76 60.0288 1266.78 82 1436 c 0
 104.676 1604.45 122 1621 198 1621 c 0
 259.234 1621 308.016 1616.29 335 1610 c 1
 311 1425 l 1
 210 1425 l 2
 151 1425 135 1380.72 135 1262 c 0
EndSplineSet
Colour: ffffff
EndChar

StartChar: mem.final
Encoding: 1501 1501 13
Width: 883
VWidth: 0
Flags: HMW
LayerCount: 2
Back
SplineSet
862 773 m 6
 863.12 964.992 814.96 1039 722 1039 c 6
 279 1039 l 6
 179 1039 155.376 1082.18 126 1144 c 5
 61 1135 l 5
 31 872.333 l 5
 88 833.333 l 5
 678 833.333 l 6
 748 833.031 768 773.954 768 642 c 6
 768 6 l 5
 788 -11 l 5
 857 0 l 5
 862 773 l 6
74 15 m 5
 74 514 l 5
 163 569 l 5
 197 558 l 5
 197 372.538 197 210.731 194 30 c 5
 108 -19 l 5
 74 15 l 5
EndSplineSet
Fore
SplineSet
304 1038 m 6
 715 1038 l 6
 804 1038 850 967 850 684 c 6
 850 196 l 22
 850 94.7979 827.612 0.640625 779 0 c 14
 74 -12 l 5
 51 4 l 5
 48 532 l 22
 46.8012 711.991 131 797.119 208 845 c 5
 311 845 l 5
 199.049 811.33 158 706 158 556 c 6
 158 306 l 6
 158 248 161 206 215 206 c 14
 691 206 l 22
 751.524 206 753 279.673 753 379 c 6
 753 630 l 6
 753 769.278 712 833 639 833 c 6
 94 833 l 5
 41 872 l 5
 72 1133 l 5
 137 1148 l 5
 163 1066 190 1038 304 1038 c 6
EndSplineSet
Colour: ffffff
EndChar

StartChar: mem
Encoding: 1502 1502 14
Width: 1008
VWidth: 0
Flags: HMW
LayerCount: 2
Fore
SplineSet
978 248 m 2
 939 682 l 2
 922 868 867 1040 741 1040 c 2
 595 1040 l 1
 554 1009 l 1
 312 722 l 1
 297 722 l 1
 355 920.988 333.226 989.414 201 1053 c 0
 168.229 1069.24 121 1085 92 1117 c 1
 57 1108 l 1
 27 899 l 1
 78 846 l 1
 165 823.171 212 808.244 212 702 c 1
 48 9 l 1
 91 -19 l 1
 221 70 l 1
 297 635 l 17
 366 724.876 474 814.751 552 832 c 1
 702 832 l 2
 764 832 838 745.573 849 638 c 2
 874 369 l 2
 887 237.175 844 206 794 206 c 10
 420 206 l 1
 392 4 l 1
 415 -12 l 1
 842 0 l 17
 935 5 987 149 978 248 c 2
EndSplineSet
Colour: ffffff
EndChar

StartChar: nun.final
Encoding: 1503 1503 15
Width: 378
VWidth: 0
Flags: HMW
LayerCount: 2
Back
SplineSet
852 773 m 6
 853.12 964.992 804.96 1039 712 1039 c 6
 269 1039 l 6
 169 1039 145.376 1082.18 116 1144 c 5
 51 1135 l 5
 21 872.333 l 5
 78 833.333 l 5
 668 833.333 l 6
 738 833.031 758 773.954 758 642 c 6
 758 6 l 5
 778 -11 l 5
 847 0 l 5
 852 773 l 6
64 15 m 5
 64 514 l 5
 153 569 l 5
 187 558 l 5
 187 372.538 187 210.731 184 30 c 5
 98 -19 l 5
 64 15 l 5
EndSplineSet
Fore
SplineSet
19 871.33 m 17
 50 1132.33 l 1
 115 1147.33 l 1
 125.706 1114.34 150.308 1056.13 193 1038 c 0
 308.001 987.593 352 959.919 352 783 c 6
 352 -367 l 5
 270 -378 l 5
 250 -361 l 5
 245 644 l 6
 244 730.687 214 772.791 182 786 c 6
 68 839 l 9
 19 871.33 l 17
EndSplineSet
Colour: ffffff
EndChar

StartChar: nun
Encoding: 1504 1504 16
Width: 448
VWidth: 0
Flags: HMW
LayerCount: 2
Back
SplineSet
380.341 277 m 17
 343.123 204.323 171.346 12.7203 98.3408 -6 c 1
 -30.6592 -6 l 1
 -50 19 l 1
 -33.6592 212 l 1
 63.3408 212 l 17
 139.319 219.117 303.868 260 351.341 357 c 1
 380.341 277 l 17
349.341 228 m 1
 344.341 612 l 2
 341.89 778.196 303.426 837 214.341 837 c 6
 52.3408 837 l 5
 11.3408 870 l 5
 42.3408 1136 l 5
 109.341 1143 l 5
 123 1084 147.812 1042 218.341 1042 c 6
 263.341 1042 l 6
 362.929 1042 433.341 967 433.341 799 c 2
 433.341 382 l 1
 448.498 300 506.961 210.152 564.341 168 c 1
 444.341 -12 l 1
 406.341 0 l 1
 375.341 228 l 1
 349.341 228 l 1
EndSplineSet
Fore
SplineSet
263.341 1042 m 2
 353.264 1042 435.946 967.866 438 783 c 2
 445 153 l 2
 446 86 444 55 411 0 c 1
 1 0 l 9
 8 189 l 17
 260 189 l 2
 300 189 344 215 344 274 c 2
 344 654 l 2
 344 765.716 304 837 214.341 837 c 2
 52.3408 837 l 1
 11.3408 870 l 1
 42.3408 1136 l 1
 109.341 1143 l 1
 123 1084 147.341 1042 218.341 1042 c 2
 263.341 1042 l 2
EndSplineSet
Colour: ffffff
EndChar

StartChar: samekh
Encoding: 1505 1505 17
Width: 930
VWidth: 0
Flags: HMW
LayerCount: 2
Back
SplineSet
832 773 m 6
 833.12 964.992 784.96 1039 692 1039 c 6
 249 1039 l 6
 149 1039 125.376 1082.18 96 1144 c 5
 31 1135 l 5
 1 872.333 l 5
 58 833.333 l 5
 648 833.333 l 6
 718 833.031 738 773.954 738 642 c 6
 738 6 l 5
 758 -11 l 5
 827 0 l 5
 832 773 l 6
44 15 m 5
 44 514 l 5
 133 569 l 5
 167 558 l 5
 167 372.538 167 210.731 164 30 c 5
 78 -19 l 5
 44 15 l 5
EndSplineSet
Fore
SplineSet
57 833 m 1
 615 833 l 6
 704 833 742.567 763.157 707 570 c 4
 679.206 393.027 636.646 230.249 403 217 c 2
 244 209 l 1
 204.393 246.304 143 528.478 143 649 c 0
 143 758.796 188 834.111 288 845 c 1
 140 845 l 1
 121 813.688 53 702.253 22 612 c 1
 22 347 67.2725 92 105 0 c 1
 136 -25 l 1
 361 0 l 2
 724.052 44 772.157 326 813 725 c 4
 832.309 896.199 837 1038 693 1038 c 6
 242 1038 l 2
 147 1038 124.876 1083 100 1148 c 1
 35 1133 l 1
 4 872 l 1
 57 833 l 1
EndSplineSet
Colour: ffffff
EndChar

StartChar: ayin
Encoding: 1506 1506 18
Width: 884
VWidth: 0
Flags: HMW
LayerCount: 2
Fore
SplineSet
589 840 m 1
 528 873 l 1
 552 1134 l 1
 615 1143 l 1
 632 1098 663 1061 712 1050 c 0
 829 1023 855 947 855 852 c 0
 855 429.529 663.154 30.8438 186 -113 c 1
 46 -119 l 1
 28 -101 l 1
 36 100 l 5
 162 100 l 5
 500.829 139.603 766 347.805 766 728 c 1
 766 761 754 792 717 802 c 2
 589 840 l 1
448 786 m 1
 138 837 l 1
 77 870 l 1
 101 1130 l 1
 164 1140 l 1
 181 1095 211.441 1053.63 261 1047 c 0
 418 1019.73 439 934.031 448 786 c 1
340 880 m 1
 430 116 l 9
 346 96 l 17
 247 873 l 1
 340 880 l 1
EndSplineSet
Colour: ffff00
EndChar

StartChar: pe.final
Encoding: 1507 1507 19
Width: 845
VWidth: 0
Flags: HMW
LayerCount: 2
Back
SplineSet
862 773 m 6
 863.12 964.992 814.96 1039 722 1039 c 6
 279 1039 l 6
 179 1039 155.376 1082.18 126 1144 c 5
 61 1135 l 5
 31 872.333 l 5
 88 833.333 l 5
 678 833.333 l 6
 748 833.031 768 773.954 768 642 c 6
 768 6 l 5
 788 -11 l 5
 857 0 l 5
 862 773 l 6
74 15 m 5
 74 514 l 5
 163 569 l 5
 197 558 l 5
 197 372.538 197 210.731 194 30 c 5
 108 -19 l 5
 74 15 l 5
EndSplineSet
Fore
SplineSet
87 833 m 1
 34 872 l 1
 65 1133 l 1
 130 1148 l 1
 154.876 1083 177 1038 272 1038 c 2
 652 1038 l 17
 716.542 1021.26 768 952.07 768 783 c 2
 768 -367 l 1
 699 -378 l 1
 679 -361 l 1
 674 644 l 2
 672.875 732.747 614 833 556 833 c 10
 87 833 l 1
323 842 m 17
 189 830.915 169 718.368 169 680 c 0
 169 613.957 196 597 269 597 c 2
 421 597 l 1
 396 400 l 1
 344.697 394.789 253.674 391 137 391 c 0
 98.4844 391 52 424.811 52 497 c 2
 52 610 l 1
 76 665.424 141 796.834 174 846 c 1
 323 842 l 17
EndSplineSet
Colour: ffffff
EndChar

StartChar: pe
Encoding: 1508 1508 20
Width: 879
VWidth: 0
Flags: HMW
LayerCount: 2
Back
SplineSet
862 773 m 6
 863.12 964.992 814.96 1039 722 1039 c 6
 279 1039 l 6
 179 1039 155.376 1082.18 126 1144 c 5
 61 1135 l 5
 31 872.333 l 5
 88 833.333 l 5
 678 833.333 l 6
 748 833.031 768 773.954 768 642 c 6
 768 6 l 5
 788 -11 l 5
 857 0 l 5
 862 773 l 6
74 15 m 5
 74 514 l 5
 163 569 l 5
 197 558 l 5
 197 372.538 197 210.731 194 30 c 5
 108 -19 l 5
 74 15 l 5
EndSplineSet
Fore
SplineSet
272 1038 m 2
 685 1038 l 1
 759 1008 810 883 810 584 c 2
 810 376 l 18
 810 182 744 57 679 0 c 9
 66 -12 l 1
 43 4 l 1
 51 206 l 1
 621 206 l 17
 659 241.502 712 292.48 713 409 c 2
 713 530 l 2
 713 738.254 660 801.105 609 833 c 9
 87 833 l 1
 34 872 l 1
 65 1133 l 1
 130 1148 l 1
 154.876 1083 176 1038 272 1038 c 2
326 842 m 17
 192 830.915 172 718.368 172 680 c 0
 172 613.957 199 597 272 597 c 2
 424 597 l 5
 399 400 l 5
 347.697 394.789 256.674 391 140 391 c 0
 101.484 391 55 424.811 55 497 c 2
 55 610 l 1
 79 665.424 144 796.834 177 846 c 1
 326 842 l 17
EndSplineSet
Colour: ffffff
EndChar

StartChar: tsadi.final
Encoding: 1509 1509 21
Width: 925
VWidth: 0
Flags: HMW
LayerCount: 2
Back
SplineSet
862 773 m 6
 863.12 964.992 814.96 1039 722 1039 c 6
 279 1039 l 6
 179 1039 155.376 1082.18 126 1144 c 5
 61 1135 l 5
 31 872.333 l 5
 88 833.333 l 5
 678 833.333 l 6
 748 833.031 768 773.954 768 642 c 6
 768 6 l 5
 788 -11 l 5
 857 0 l 5
 862 773 l 6
74 15 m 5
 74 514 l 5
 163 569 l 5
 197 558 l 5
 197 372.538 197 210.731 194 30 c 5
 108 -19 l 5
 74 15 l 5
EndSplineSet
Fore
SplineSet
728 780 m 1
 655.466 637.941 586.558 506.513 436.529 205 c 1
 426 133 l 1
 361 345 l 1
 418 345 l 1
 484.732 414.061 634 729.704 634 815 c 0
 634 838.021 609.014 847.635 580 858.333 c 1
 548 900.333 l 1
 566 1141.33 l 1
 634 1149.33 l 1
 645.255 1117.28 669 1065.14 716 1051.33 c 2
 771 1035 l 2
 855.315 1007.79 875.938 908.987 858 784 c 1
 802.88 804 762.32 804 728 780 c 1
340 -361 m 1
 314 265 l 2
 294.741 711.867 275.704 754.678 172 796 c 2
 68 839 l 1
 28 878 l 1
 46 1135 l 1
 114 1142 l 1
 124.843 1110.62 147.914 1049.59 193 1038 c 0
 333 999.177 338 967.902 356 763 c 2
 403 279 l 1
 426 133 l 1
 492 -307 l 1
 370 -378 l 1
 340 -361 l 1
EndSplineSet
Colour: ffffff
EndChar

StartChar: tsadi
Encoding: 1510 1510 22
Width: 952
VWidth: 0
Flags: HMW
LayerCount: 2
Back
SplineSet
862 773 m 6
 863.12 964.992 814.96 1039 722 1039 c 6
 279 1039 l 6
 179 1039 155.376 1082.18 126 1144 c 5
 61 1135 l 5
 31 872.333 l 5
 88 833.333 l 5
 678 833.333 l 6
 748 833.031 768 773.954 768 642 c 6
 768 6 l 5
 788 -11 l 5
 857 0 l 5
 862 773 l 6
74 15 m 5
 74 514 l 5
 163 569 l 5
 197 558 l 5
 197 372.538 197 210.731 194 30 c 5
 108 -19 l 5
 74 15 l 5
EndSplineSet
Fore
SplineSet
65 207 m 1
 638 207 l 1
 638 227 l 1
 358 586 l 6
 306 650 305 675.247 277.685 752 c 4
 262.697 783.848 214.028 803.891 169 814 c 2
 50 850 l 1
 30 879 l 1
 61 1135 l 1
 129 1142 l 1
 141.214 1113 161.095 1060.59 243 1038 c 2
 272 1030 l 2
 316.939 1016.61 360.972 965.839 360.972 810 c 4
 360.972 722.716 365.161 714.781 412.87 661 c 4
 465.083 574.185 571.608 478.485 611 449 c 1
 865 211 l 1
 882.234 136.529 846.04 29.5029 820 0 c 1
 60 -14 l 1
 37 2 l 1
 65 207 l 1
754 780 m 1
 724.056 701.12 676.239 592.698 647.529 490 c 1
 645 398 l 1
 528 500 l 1
 555 500 l 1
 593.842 534.261 678 701.926 678 778 c 0
 678 833.404 663.037 845.756 594 858.333 c 1
 562 900.333 l 1
 580 1141.33 l 1
 648 1149.33 l 1
 659.255 1117.28 678.182 1066.72 730 1051.33 c 2
 785 1035 l 2
 870 1007.84 889.938 908.987 872 784 c 1
 821.968 804 785.152 804 754 780 c 1
EndSplineSet
Colour: ffffff
EndChar

StartChar: qof
Encoding: 1511 1511 23
Width: 945
VWidth: 0
Flags: HMW
LayerCount: 2
Back
SplineSet
862 773 m 6
 863.12 964.992 814.96 1039 722 1039 c 6
 279 1039 l 6
 179 1039 155.376 1082.18 126 1144 c 5
 61 1135 l 5
 31 872.333 l 5
 88 833.333 l 5
 678 833.333 l 6
 748 833.031 768 773.954 768 642 c 6
 768 6 l 5
 788 -11 l 5
 857 0 l 5
 862 773 l 6
74 15 m 5
 74 514 l 5
 163 569 l 5
 197 558 l 5
 197 372.538 197 210.731 194 30 c 5
 108 -19 l 5
 74 15 l 5
EndSplineSet
Fore
SplineSet
87 833 m 1
 519 833 l 2
 654.277 833 739.15 797.731 739.15 672.172 c 0
 739.15 478.152 660.585 451.715 509 363 c 2
 375 266 l 1
 367 65 l 1
 385 47 l 1
 637 235 l 2
 760.639 314.516 836.676 397.866 836.676 691.595 c 0
 836.676 944.851 713.313 1038 593 1038 c 2
 272 1038 l 2
 176 1038 154.876 1083 130 1148 c 1
 65 1133 l 1
 34 872 l 1
 87 833 l 1
72 -352 m 1
 76 571 l 1
 147 617 l 1
 180 610 l 1
 206 -313 l 1
 112 -382 l 1
 72 -352 l 1
EndSplineSet
Colour: ffffff
EndChar

StartChar: resh
Encoding: 1512 1512 24
Width: 945
VWidth: 0
Flags: HMW
LayerCount: 2
Back
SplineSet
857 773 m 6
 858.12 964.992 809.96 1039 717 1039 c 6
 274 1039 l 6
 174 1039 150.376 1082.18 121 1144 c 5
 56 1135 l 5
 26 872.333 l 5
 83 833.333 l 5
 673 833.333 l 6
 743 833.031 763 773.954 763 642 c 6
 763 6 l 5
 783 -11 l 5
 852 0 l 5
 857 773 l 6
69 15 m 5
 69 514 l 5
 158 569 l 5
 192 558 l 5
 192 372.538 192 210.731 189 30 c 5
 103 -19 l 5
 69 15 l 5
EndSplineSet
Fore
SplineSet
75 833 m 1
 565 833 l 2
 637 833 658 773.724 658 642 c 2
 658 6 l 1
 678 -11 l 1
 747 0 l 1
 752 773 l 2
 753.024 964.27 709 1038 624 1038 c 2
 260 1038 l 2
 164 1038 142.876 1083 118 1148 c 1
 53 1133 l 1
 22 872 l 1
 75 833 l 1
EndSplineSet
Colour: ffffff
EndChar

StartChar: shin
Encoding: 1513 1513 25
Width: 1029
VWidth: 0
Flags: HMW
LayerCount: 2
Back
SplineSet
862 773 m 6
 863.12 964.992 814.96 1039 722 1039 c 6
 279 1039 l 6
 179 1039 155.376 1082.18 126 1144 c 5
 61 1135 l 5
 31 872.333 l 5
 88 833.333 l 5
 678 833.333 l 6
 748 833.031 768 773.954 768 642 c 6
 768 6 l 5
 788 -11 l 5
 857 0 l 5
 862 773 l 6
74 15 m 5
 74 514 l 5
 163 569 l 5
 197 558 l 5
 197 372.538 197 210.731 194 30 c 5
 108 -19 l 5
 74 15 l 5
EndSplineSet
Fore
SplineSet
28 874 m 1
 63 1134 l 1
 140 1140 l 1
 178 1040 l 1
 299 990 l 1
 328 953 l 1
 286 766 l 1
 276 762 l 1
 225 781 l 1
 183 738.563 159 685.291 159 595 c 0
 159 552.153 203 302.689 240 197 c 1
 669 231 l 1
 776.182 311.744 931 643.372 931 727 c 4
 931 761.222 903 783 856 797 c 6
 750 833 l 5
 730 861 l 5
 760 1125 l 5
 830 1136 l 5
 871 1030 l 5
 912 1011 l 5
 980 978 1020 944 1020 861 c 4
 1020 604 806.014 184 714 28 c 1
 148 -12 l 1
 129 6 123 15 117 22 c 1
 117 22 67 323 67 519 c 0
 67 628.862 99 739.655 157 789 c 1
 157 801 l 1
 59 840 l 1
 28 874 l 1
227 210 m 1
 433 1133 l 1
 512 1138 l 1
 550 1034 l 1
 643 997 l 1
 664 957 l 1
 629 774 l 1
 616 772 l 1
 466 820 l 1
 300 192 l 1
 229 186 l 1
 227 195 229 199 227 210 c 1
EndSplineSet
Colour: ff00ff
EndChar

StartChar: tav
Encoding: 1514 1514 26
Width: 838
VWidth: 0
Flags: HMW
LayerCount: 2
Back
SplineSet
872 773 m 6
 873.12 964.992 824.96 1039 732 1039 c 6
 289 1039 l 6
 189 1039 165.376 1082.18 136 1144 c 5
 71 1135 l 5
 41 872.333 l 5
 98 833.333 l 5
 688 833.333 l 6
 758 833.031 778 773.954 778 642 c 6
 778 6 l 5
 798 -11 l 5
 867 0 l 5
 872 773 l 6
84 15 m 5
 84 514 l 5
 173 569 l 5
 207 558 l 5
 207 372.538 207 210.731 204 30 c 5
 118 -19 l 5
 84 15 l 5
EndSplineSet
Fore
SplineSet
804 586 m 2
 811 759.103 781 837 700 837 c 2
 150 837 l 1
 107 876 l 1
 140 1134 l 1
 195 1142 l 1
 219 1079 238 1035 320 1035 c 2
 759 1034 l 2
 842 1034 880.899 964.873 884 790 c 2
 897 57 l 1
 793 -12 l 1
 753 18 l 1
 804 586 l 2
307 855 m 1
 280 800.708 246 682.352 246 602 c 0
 246 450 393 308 393 131 c 0
 393 81 377 54 356 2 c 1
 68 0 l 1
 46 83 l 1
 190 127 l 1
 196 141 197 161 197 182 c 0
 197 275 132 417 132 514 c 0
 132 634.267 156.938 739.633 233 845 c 1
 307 855 l 1
EndSplineSet
Colour: ff00ff
EndChar

StartChar: uni05D0.alt
Encoding: 0 0 27
Width: 835
VWidth: 0
Flags: HMW
LayerCount: 2
Back
SplineSet
794.829 624.613 m 5
 773.027 642.255 724.248 673.631 697.91 673.631 c 0
 671.909 673.631 585.248 429.842 573.248 303.842 c 1
 467.248 377.842 l 1
 624.568 712.901 l 1
 473.416 799.842 l 1
 480.533 861.025 487.333 915.495 493.248 957.842 c 1
 553.545 972.842 l 5
 580.077 912.758 607.248 894.842 671.231 864.07 c 6
 709 846 l 6
 796.69 804.045 825.252 732.169 794.829 624.613 c 5
EndSplineSet
Fore
SplineSet
726 142 m 1
 726 88 682 12 658 -7 c 1
 636 -10 l 1
 171 612 l 2
 150 640 118 682 104 697 c 1
 106 609 107 448 107 357 c 0
 107 184 140 153 234 153 c 0
 260 153 270 154 290 155 c 1
 268 30 l 1
 239 7 188 -9 122 -9 c 0
 68 -9 -13 23 -13 79 c 0
 -13 201 31 741 61 959 c 1
 140 974 l 1
 154 912 201 818 251 753 c 2
 726 142 l 1
755 648 m 1
 709 685 618 752 600 752 c 0
 568 752 449 420 437 386 c 1
 399 408 l 1
 465 582 521 821 514 959 c 1
 574 973 l 1
 594 946 646 906 691 873 c 2
 709 860 l 2
 785 804 787 743 755 648 c 1
EndSplineSet
Colour: ffffff
EndChar

StartChar: a
Encoding: 97 97 31
Width: 830
VWidth: 0
Flags: W
HStem: -24 123<190.5 410.153> 1 86<782 819> 428 57<407.813 508> 807 93<246.628 440.012>
VStem: 47 175<123.621 303.932> 81 139<637.141 782.037> 508 162<149.1 428 480.961 737.155>
LayerCount: 2
Fore
SplineSet
47 168 m 4xba
 47 315 182 462 508 485 c 5
 508 540 l 6
 508 675 469 807 331 807 c 4
 235 807 234 756 220 592 c 5
 167 592 81 596 81 695 c 4
 81 804 285 900 423 900 c 4
 601 900 670 804 670 593 c 6
 670 230 l 6
 670 138 689 111 782 96 c 6
 832 87 l 5
 819 1 l 5x76
 772 -5 742 -18 683 -18 c 4
 567 -18 528 57 528 116 c 6
 528 131 l 5
 517 131 l 5
 490 78 407 -24 243 -24 c 4
 138 -24 47 46 47 168 c 4xba
222 215 m 4xba
 222 165 260 99 334 99 c 4
 404 99 475 151 508 188 c 5
 508 428 l 5
 290 385 222 311 222 215 c 4xba
EndSplineSet
Colour: ffffff
EndChar

StartChar: b
Encoding: 98 98 32
Width: 955
VWidth: 0
Flags: HW
HStem: -23 110<331.765 621.585> 768 131<425.299 626.83> 1238 20G<11.1905 295.87>
VStem: 136 163<124.454 711.68 744 1108> 725 179<258.586 647.801>
LayerCount: 2
Fore
SplineSet
-15 1161 m 1
 -2 1237 l 1
 275 1258 l 1
 299 1235 l 1
 299 849 l 1
 285 744 l 1
 296 744 l 1
 375 833 468 899 581 899 c 0
 775 899 904 725 904 472 c 0
 904 155 671 -23 411 -23 c 0
 321 -23 216 -1 136 49 c 1
 136 1108 l 1
 -15 1161 l 1
299 155 m 1
 339 115 423 87 510 87 c 0
 624 87 725 185 725 408 c 0
 725 556 684 768 513 768 c 0
 457 768 378 755 299 672 c 1
 299 155 l 1
EndSplineSet
Colour: ffffff
EndChar

StartChar: c
Encoding: 99 99 33
Width: 778
VWidth: 0
Flags: HW
LayerCount: 2
Fore
SplineSet
50 415 m 0
 50 712 258 900 475 900 c 0
 642 900 716 826 716 747 c 0
 716 688 672 648 589 642 c 1
 561 709 515 806 428 806 c 0
 309 806 231 688 231 507 c 0
 231 340 320 90 528 90 c 0
 627 90 683 121 730 151 c 1
 755 93 l 1
 702 29 574 -30 445 -30 c 0
 205 -30 50 175 50 415 c 0
EndSplineSet
Colour: ffffff
EndChar

StartChar: d
Encoding: 100 100 34
Width: 987
VWidth: 0
Flags: HW
HStem: -21 126<336.869 544.345> -4 83<928 962> 802 98<325.189 569.168> 1245 20G<566.333 815.5>
VStem: 54 176<229.272 611.068> 657 162<108.896 131 159.877 720.768 856 1111>
LayerCount: 2
Fore
SplineSet
54 399 m 0xbc
 54 690 285 900 491 900 c 0
 557 900 630 880 663 856 c 1
 670 856 l 1
 658 984 l 1
 658 1111 l 1
 506 1166 l 1
 520 1241 l 1
 798 1265 l 1
 819 1241 l 1
 819 215 l 2
 819 110 862 104 928 89 c 2
 973 79 l 1
 962 -4 l 1x7c
 903 -19 877 -23 815 -23 c 0
 715 -23 666 41 666 124 c 2
 666 131 l 1
 657 131 l 1
 601 54 518 -21 380 -21 c 0
 203 -21 54 124 54 399 c 0xbc
230 462 m 0
 230 225 325 105 451 105 c 0xbc
 534 105 623 157 657 197 c 1
 657 666 l 1
 604 753 510 802 443 802 c 0
 286 802 230 653 230 462 c 0
EndSplineSet
Colour: ffffff
EndChar

StartChar: e
Encoding: 101 101 35
Width: 802
VWidth: 0
Flags: W
HStem: -30 132<373.13 633.132> 801 98<317.899 516.372>
VStem: 53 178<272.847 445 523 638.97> 553 178<545.363 763.979>
LayerCount: 2
Fore
SplineSet
53 428 m 0
 53 728 270 899 464 899 c 0
 609 899 731 792 731 581 c 0
 731 550 723 485 715 451 c 1
 231 445 l 1
 239 288 323 102 510 102 c 0
 583 102 634 101 737 157 c 1
 758 104 l 1
 679 21 561 -30 429 -30 c 0
 241 -30 53 124 53 428 c 0
233 523 m 1
 547 546 l 1
 551 562 553 599 553 615 c 0
 553 734 511 801 415 801 c 0
 335 801 243 717 233 523 c 1
EndSplineSet
Colour: ffffff
EndChar

StartChar: f
Encoding: 102 102 36
Width: 694
VWidth: 0
Flags: HW
LayerCount: 2
Fore
SplineSet
35 0 m 1
 47 73 l 1
 199 116 l 1
 199 784 l 1
 50 784 l 1
 62 857 l 1
 200 879 l 1
 233 1167 433 1304 575 1304 c 0
 680 1304 762 1269 762 1189 c 0
 762 1140 706 1090 673 1077 c 1
 633 1126 559 1198 497 1198 c 0
 423 1198 372 1153 368 981 c 1
 366 873 l 1
 623 873 l 1
 611 784 l 1
 366 784 l 1
 366 121 l 1
 611 83 l 1
 604 0 l 1
 35 0 l 1
EndSplineSet
Colour: ffffff
EndChar

StartChar: g
Encoding: 103 103 37
Width: 890
VWidth: 0
Flags: HW
LayerCount: 2
Fore
SplineSet
24 -162 m 0
 24 -70 135 -10 184 18 c 1
 184 27 l 1
 122 57 88 107 88 164 c 0
 88 218 181 298 255 328 c 1
 255 335 l 1
 205 348 92 454 92 589 c 0
 92 754 258 896 426 896 c 0
 518 896 586 869 636 833 c 1
 651 833 851 849 851 849 c 1
 871 826 l 1
 832 715 l 1
 816 715 l 1
 693 755 l 1
 693 738 l 1
 706 710 727 649 727 599 c 0
 727 415 540 301 389 301 c 0
 349 301 310 308 299 311 c 1
 276 287 249 254 249 223 c 0
 249 183 276 151 432 151 c 2
 568 151 l 2
 716 151 845 124 845 -50 c 0
 845 -224 614 -386 386 -386 c 0
 202 -386 24 -334 24 -162 c 0
200 -108 m 0
 200 -242 311 -279 440 -279 c 0
 571 -279 676 -232 676 -100 c 0
 676 -11 607 3 426 3 c 2
 252 3 l 1
 252 3 200 -16 200 -108 c 0
252 608 m 0
 252 470 344 380 417 380 c 0
 506 380 564 439 564 580 c 0
 564 688 507 823 402 823 c 0
 300 823 252 739 252 608 c 0
EndSplineSet
Colour: ffffff
EndChar

StartChar: h
Encoding: 104 104 38
Width: 1029
VWidth: 0
Flags: HW
LayerCount: 2
Fore
SplineSet
10 0 m 1
 21 79 l 1
 175 116 l 1
 175 1117 l 1
 15 1171 l 1
 27 1247 l 1
 316 1269 l 1
 341 1245 l 1
 341 850 l 1
 325 744 l 1
 335 744 l 1
 418 836 516 900 629 900 c 0
 767 900 872 842 872 599 c 2
 872 114 l 1
 1017 79 l 1
 1005 0 l 1
 556 0 l 1
 568 74 l 1
 703 114 l 1
 706 580 l 2
 706 722 613 764 534 764 c 0
 477 764 411 748 341 675 c 1
 341 116 l 1
 487 80 l 1
 475 0 l 1
 10 0 l 1
EndSplineSet
Colour: ffffff
EndChar

StartChar: i
Encoding: 105 105 39
Width: 539
VWidth: 0
Flags: HW
HStem: 0 79<49 107.506 466.007 517> 865 20G<98.6522 363> 1070 236<184.925 368.696>
VStem: 156 241<1098.79 1279.41> 200 168<116 731>
LayerCount: 2
Fore
SplineSet
37 0 m 1xe8
 49 79 l 1
 200 116 l 1
 200 731 l 1
 49 786 l 1
 62 862 l 1
 343 885 l 1
 368 860 l 1
 368 116 l 1
 528 80 l 1
 517 0 l 1
 37 0 l 1xe8
156 1194 m 0xf0
 156 1258 213 1306 275 1306 c 0
 341 1306 397 1256 397 1192 c 0
 397 1125 341 1070 275 1070 c 0
 209 1070 156 1127 156 1194 c 0xf0
EndSplineSet
Colour: ffffff
EndChar

StartChar: j
Encoding: 106 106 40
Width: 463
VWidth: 0
Flags: HW
LayerCount: 2
Fore
SplineSet
-34 -295 m 1
 74 -215 187 -98 187 172 c 2
 187 731 l 1
 37 786 l 1
 52 866 l 1
 331 887 l 1
 356 862 l 1
 356 151 l 2
 356 -131 212 -274 61 -359 c 2
 15 -383 l 1
 -34 -295 l 1
139 1189 m 0
 139 1256 196 1308 263 1308 c 0
 329 1308 384 1254 384 1188 c 0
 384 1121 329 1063 262 1063 c 0
 195 1063 139 1122 139 1189 c 0
EndSplineSet
Colour: ffffff
EndChar

StartChar: k
Encoding: 107 107 41
Width: 972
VWidth: 0
Flags: HW
LayerCount: 2
Fore
SplineSet
10 0 m 1
 21 79 l 1
 174 116 l 1
 174 1108 l 1
 16 1161 l 1
 28 1237 l 1
 316 1260 l 1
 341 1235 l 1
 341 116 l 1
 500 80 l 1
 488 0 l 1
 10 0 l 1
365 432 m 1
 365 452 l 1
 624 777 l 1
 491 817 l 1
 501 893 l 1
 927 893 l 1
 913 819 l 1
 764 777 l 1
 527 487 l 1
 606 386 l 2
 753 199 805 99 931 83 c 2
 971 77 l 1
 960 0 l 1
 945 -4 885 -19 841 -19 c 0
 709 -19 634 66 470 287 c 1
 365 432 l 1
EndSplineSet
Colour: ffffff
EndChar

StartChar: l
Encoding: 108 108 42
Width: 510
VWidth: 0
Flags: W
HStem: 0 79<21 80.2813 438.394 488> 1249 20G<54.1818 336.833>
VStem: 174 167<116 1117>
LayerCount: 2
Fore
SplineSet
10 0 m 1
 21 79 l 1
 174 116 l 1
 174 1117 l 1
 16 1171 l 1
 28 1247 l 1
 316 1269 l 1
 341 1245 l 1
 341 116 l 1
 500 80 l 1
 488 0 l 1
 10 0 l 1
EndSplineSet
Colour: ffffff
EndChar

StartChar: m
Encoding: 109 109 43
Width: 1584
VWidth: 0
Flags: HW
LayerCount: 2
Fore
SplineSet
43 0 m 1
 53 74 l 1
 203 114 l 1
 203 719 l 1
 43 770 l 1
 53 845 l 1
 357 887 l 1
 375 866 l 1
 357 740 l 1
 366 740 l 1
 430 819 540 896 666 896 c 0
 756 896 856 853 887 731 c 1
 899 731 l 1
 963 814 1068 888 1194 888 c 0
 1361 888 1430 783 1430 609 c 2
 1430 116 l 1
 1568 80 l 1
 1555 1 l 1
 1130 1 l 1
 1137 74 l 1
 1262 114 l 1
 1262 585 l 2
 1262 681 1202 760 1094 760 c 0
 1005 760 949 709 903 660 c 1
 903 114 l 1
 1051 79 l 1
 1041 0 l 1
 598 0 l 1
 609 74 l 1
 740 114 l 1
 740 585 l 2
 740 690 665 760 569 760 c 0
 495 760 422 730 372 673 c 1
 372 114 l 1
 515 79 l 1
 504 0 l 1
 43 0 l 1
EndSplineSet
Colour: ffffff
EndChar

StartChar: n
Encoding: 110 110 44
Width: 1337
VWidth: 0
Flags: W
HStem: 0 73<47 99.7984 462.901 501 599 647.253 997.649 1038> 761 138<499.21 685.86>
VStem: 198 168<114 714.047> 737 167<114 708.215>
LayerCount: 2
Fore
SplineSet
37 0 m 1
 47 73 l 1
 198 114 l 1
 198 721 l 1
 44 773 l 1
 54 849 l 1
 352 888 l 1
 369 869 l 1
 352 741 l 1
 362 741 l 1
 429 821 537 899 663 899 c 0
 820 899 904 794 904 616 c 2
 904 114 l 1
 1048 79 l 1
 1038 0 l 1
 589 0 l 1
 599 73 l 1
 737 114 l 1
 737 577 l 2
 737 706 662 761 563 761 c 0
 490 761 416 731 366 675 c 1
 366 114 l 1
 515 79 l 1
 501 0 l 1
 37 0 l 1
EndSplineSet
Colour: ffffff
EndChar

StartChar: o
Encoding: 111 111 45
Width: 802
VWidth: 0
Flags: W
HStem: -27 97<367.686 609.797> 798 105<324.3 564.897>
VStem: 52 178<242.286 641.227> 704 178<226.286 619.183>
LayerCount: 2
Fore
SplineSet
52 426 m 4
 52 730 264 903 487 903 c 4
 733 903 882 716 882 441 c 4
 882 162 696 -27 463 -27 c 4
 199 -27 52 169 52 426 c 4
230 497 m 4
 230 291 300 70 497 70 c 4
 638 70 704 218 704 359 c 4
 704 557 635 798 445 798 c 4
 294 798 230 654 230 497 c 4
EndSplineSet
Colour: ffffff
EndChar

StartChar: p
Encoding: 112 112 46
Width: 968
VWidth: 0
Flags: HW
LayerCount: 2
Fore
SplineSet
13 -372 m 1
 19 -294 l 1
 172 -256 l 1
 172 722 l 1
 18 768 l 1
 30 845 l 1
 321 882 l 1
 342 863 l 1
 328 734 l 1
 335 734 l 1
 385 804 480 899 611 899 c 0
 782 899 914 771 914 467 c 0
 914 182 726 -19 469 -19 c 0
 439 -19 408 -16 375 -10 c 1
 369 111 l 1
 415 93 443 89 522 89 c 0
 660 89 731 218 731 406 c 0
 731 643 668 768 540 768 c 0
 454 768 379 712 335 666 c 1
 335 -257 l 1
 491 -292 l 1
 479 -372 l 1
 13 -372 l 1
EndSplineSet
Colour: ffffff
EndChar

StartChar: q
Encoding: 113 113 47
Width: 955
VWidth: 0
Flags: HW
LayerCount: 2
Fore
SplineSet
54 412 m 0
 54 683 284 900 494 900 c 0
 560 900 637 869 667 853 c 1
 784 892 l 1
 813 890 l 1
 813 -251 l 1
 973 -285 l 1
 962 -366 l 1
 486 -366 l 1
 496 -287 l 1
 647 -251 l 1
 647 663 l 1
 613 724 545 801 445 801 c 0
 323 801 228 677 228 474 c 0
 228 237 320 104 446 104 c 0
 476 104 569 118 618 148 c 1
 621 73 l 1
 559 14 451 -21 381 -21 c 0
 204 -21 54 115 54 412 c 0
EndSplineSet
Colour: ffffff
EndChar

StartChar: r
Encoding: 114 114 48
Width: 735
VWidth: 0
Flags: HW
LayerCount: 2
Fore
SplineSet
40 0 m 1
 50 74 l 1
 203 114 l 1
 203 728 l 1
 40 777 l 1
 54 853 l 1
 341 890 l 1
 364 866 l 1
 344 636 l 1
 363 636 l 1
 416 817 515 906 598 906 c 0
 672 906 718 852 718 793 c 0
 718 750 693 709 640 673 c 1
 606 703 566 722 530 722 c 0
 477 722 390 655 369 504 c 1
 369 121 l 1
 602 87 l 1
 592 0 l 1
 40 0 l 1
EndSplineSet
Colour: ffffff
EndChar

StartChar: s
Encoding: 115 115 49
Width: 697
VWidth: 0
Flags: HW
LayerCount: 2
Fore
SplineSet
50 141 m 0
 50 208 99 265 182 271 c 1
 225 130 295 64 371 64 c 0
 441 64 503 91 503 165 c 0
 503 324 74 360 74 635 c 0
 74 751 170 900 372 900 c 0
 503 900 617 845 617 734 c 0
 617 651 564 595 477 589 c 1
 470 632 l 2
 442 780 380 816 321 816 c 0
 251 816 209 760 209 696 c 0
 209 509 648 487 648 220 c 0
 648 72 494 -34 340 -34 c 0
 162 -34 50 51 50 141 c 0
EndSplineSet
Colour: ffffff
EndChar

StartChar: t
Encoding: 116 116 50
Width: 649
VWidth: 0
Flags: W
HStem: -23 145<357.17 525.271> 781 88<328 602>
VStem: 151 172<158.938 781>
LayerCount: 2
Fore
SplineSet
28 783 m 1
 28 837 l 1
 111 901 205 998 275 1087 c 1
 328 1087 l 1
 328 869 l 1
 611 869 l 1
 602 781 l 1
 326 781 l 1
 323 319 l 2
 323 168 368 122 470 122 c 0
 544 122 614 178 614 178 c 1
 635 124 l 1
 574 35 478 -23 364 -23 c 0
 242 -23 149 37 151 260 c 2
 155 783 l 1
 28 783 l 1
EndSplineSet
Colour: ffffff
EndChar

StartChar: u
Encoding: 117 117 51
Width: 1002
VWidth: 0
Flags: W
HStem: -23 137<371.615 551.03> -4 83<940 977> 764 92<517 561.272> 863 20G<45.7619 321.833 593.222 828.5>
VStem: 157 169<160.4 728> 666 166<110.471 131 153.644 722>
LayerCount: 2
Fore
SplineSet
19 783 m 1xbc
 33 862 l 1
 301 883 l 1
 326 859 l 1
 326 317 l 2
 326 166 390 114 480 114 c 0xbc
 570 114 623 147 666 191 c 1
 666 722 l 1
 507 764 l 1
 517 856 l 1
 811 883 l 1
 832 859 l 1
 832 215 l 2
 832 115 874 104 940 89 c 2
 986 79 l 1
 977 -4 l 1x7c
 915 -19 885 -23 826 -23 c 0
 726 -23 679 39 679 122 c 2
 679 131 l 1
 666 131 l 1
 596 29 501 -23 380 -23 c 0
 251 -23 157 52 157 267 c 2
 157 728 l 1
 19 783 l 1xbc
EndSplineSet
Colour: ffffff
EndChar

StartChar: v
Encoding: 118 118 52
Width: 904
VWidth: 0
Flags: HW
LayerCount: 2
Fore
SplineSet
-6 798 m 1
 4 873 l 1
 451 873 l 1
 443 799 l 1
 298 758 l 1
 486 194 l 1
 678 756 l 1
 517 798 l 1
 531 873 l 1
 914 873 l 1
 902 799 l 1
 794 758 l 1
 521 -10 l 1
 394 -28 l 1
 116 756 l 1
 -6 798 l 1
EndSplineSet
Colour: ffffff
EndChar

StartChar: w
Encoding: 119 119 53
Width: 1234
VWidth: 0
Flags: HW
LayerCount: 2
Fore
SplineSet
-2 799 m 1
 8 875 l 1
 423 875 l 1
 414 801 l 1
 279 760 l 1
 390 360 l 1
 414 240 l 1
 565 811 l 1
 704 829 l 1
 841 345 l 1
 862 234 l 1
 998 758 l 1
 848 799 l 1
 858 875 l 1
 1241 875 l 1
 1229 801 l 1
 1121 760 l 1
 909 -10 l 1
 790 -28 l 1
 617 586 l 1
 460 -10 l 1
 341 -28 l 1
 113 758 l 1
 -2 799 l 1
EndSplineSet
Colour: ffffff
EndChar

StartChar: x
Encoding: 120 120 54
Width: 958
VWidth: 0
Flags: W
HStem: 0 74<371.657 409 495 537.675> 806 76<552 584.763>
LayerCount: 2
Fore
SplineSet
21 0 m 1
 31 73 l 1
 138 114 l 1
 383 436 l 1
 154 764 l 1
 36 806 l 1
 46 882 l 1
 480 882 l 1
 467 807 l 1
 352 767 l 1
 508 549 l 1
 675 764 l 1
 538 806 l 1
 552 882 l 1
 927 882 l 1
 914 807 l 1
 810 767 l 1
 580 467 l 1
 823 114 l 1
 936 74 l 1
 927 0 l 1
 482 0 l 1
 495 73 l 1
 623 114 l 1
 458 351 l 1
 277 114 l 1
 419 74 l 1
 409 0 l 1
 21 0 l 1
EndSplineSet
Colour: ffffff
EndChar

StartChar: y
Encoding: 121 121 55
Width: 931
VWidth: 0
Flags: HW
LayerCount: 2
Fore
SplineSet
8 -261 m 0
 8 -221 18 -181 64 -141 c 1
 118 -178 162 -194 215 -194 c 0
 264 -194 332 -183 386 -49 c 2
 406 0 l 1
 121 758 l 1
 -3 796 l 1
 8 873 l 1
 428 873 l 1
 419 799 l 1
 292 761 l 1
 496 222 l 1
 712 756 l 1
 581 798 l 1
 595 873 l 1
 937 873 l 1
 930 799 l 1
 829 758 l 1
 498 -53 l 2
 394 -309 313 -380 162 -380 c 0
 70 -380 8 -318 8 -261 c 0
EndSplineSet
Colour: ffffff
EndChar

StartChar: z
Encoding: 122 122 56
Width: 818
VWidth: 0
Flags: HW
LayerCount: 2
Fore
SplineSet
53 87 m 1
 543 780 l 1
 206 780 l 1
 147 595 l 1
 70 608 l 1
 78 873 l 1
 750 873 l 1
 750 799 l 1
 248 99 l 1
 608 99 l 1
 703 275 l 1
 770 267 l 1
 728 0 l 1
 57 0 l 1
 53 87 l 1
EndSplineSet
Colour: ffffff
EndChar

StartChar: A
Encoding: 65 65 57
Width: 1278
VWidth: 1691
Flags: W
HStem: 0 80<406.761 431 725 754.091 1211.04 1228> 432 102<406 758> 1248 20G<612.581 716.818>
LayerCount: 2
Fore
SplineSet
-37 0 m 5
 -28 74 l 5
 121 129 l 5
 559 1237 l 5
 710 1268 l 5
 1100 124 l 5
 1237 80 l 5
 1228 0 l 5
 713 0 l 5
 725 74 l 5
 896 129 l 5
 787 432 l 5
 368 432 l 5
 256 124 l 5
 442 80 l 5
 431 0 l 5
 -37 0 l 5
406 534 m 5
 758 534 l 5
 592 1034 l 5
 406 534 l 5
EndSplineSet
Colour: ffffff
EndChar

StartChar: B
Encoding: 66 66 58
Width: 1127
VWidth: 1691
Flags: HW
LayerCount: 2
Fore
SplineSet
50 0 m 1
 61 74 l 1
 228 121 l 1
 228 1104 l 1
 57 1134 l 1
 67 1211 l 1
 212 1232 382 1257 559 1257 c 0
 869 1257 996 1118 996 967 c 0
 996 863 947 736 790 679 c 1
 790 672 l 1
 995 661 1100 512 1100 380 c 0
 1100 192 970 0 568 0 c 2
 50 0 l 1
420 96 m 1
 640 96 l 2
 814 96 904 218 904 347 c 0
 904 471 818 605 643 605 c 2
 420 605 l 1
 420 96 l 1
420 688 m 1
 678 688 l 1
 764 724 808 795 808 909 c 0
 808 1033 743 1171 500 1171 c 0
 476 1171 447 1168 420 1164 c 1
 420 688 l 1
EndSplineSet
Colour: ffffff
EndChar

StartChar: C
Encoding: 67 67 59
Width: 1111
VWidth: 1691
Flags: HW
LayerCount: 2
Fore
SplineSet
61 589 m 0
 61 884 246 1269 704 1269 c 0
 839.646 1269 977.348 1242 1076 1169 c 1
 1025 837 l 1
 937 850 l 1
 915 1070 l 1
 867.217 1129 781 1174 647 1174 c 0
 439 1174 275 980 275 658 c 0
 275 299 491 111 728 111 c 0
 862 111 992 182 1078 261 c 1
 1113 185 l 1
 1034 89 859 -24 651 -24 c 0
 344 -24 61 190 61 589 c 0
EndSplineSet
Colour: ffffff
EndChar

StartChar: D
Encoding: 68 68 60
Width: 1327
VWidth: 1691
Flags: HW
LayerCount: 2
Fore
SplineSet
47 0 m 1
 61 74 l 1
 233 129 l 1
 233 1103 l 1
 61 1133 l 1
 70 1209 l 1
 267 1240 438 1258 583 1258 c 0
 1145 1258 1304 961 1304 653 c 0
 1304 311 1053 0 541 0 c 2
 47 0 l 1
424 104 m 1
 569 104 l 2
 924 104 1093 331 1093 598 c 0
 1093 905 914 1155 546 1155 c 0
 506 1155 464 1155 424 1151 c 1
 424 104 l 1
EndSplineSet
Colour: ffffff
EndChar

StartChar: E
Encoding: 69 69 61
Width: 1075
VWidth: 1691
Flags: HW
LayerCount: 2
Fore
SplineSet
50 1168 m 1
 61 1244 l 1
 1056 1244 l 1
 1025 924 l 1
 938 937 l 1
 897 1152 l 1
 426 1152 l 1
 426 676 l 1
 716 676 l 1
 758 796 l 1
 853 810 l 1
 819 421 l 1
 734 408 l 1
 700 583 l 1
 426 583 l 1
 426 96 l 1
 921 96 l 1
 1019 326 l 1
 1102 313 l 1
 1072 0 l 1
 57 0 l 1
 65 74 l 1
 232 121 l 1
 232 1126 l 1
 50 1168 l 1
EndSplineSet
Colour: ffffff
EndChar

StartChar: F
Encoding: 70 70 62
Width: 1028
VWidth: 1691
Flags: HW
LayerCount: 2
Fore
SplineSet
50 1168 m 1
 61 1244 l 1
 1054 1244 l 1
 1013 922 l 1
 925 936 l 1
 891 1152 l 1
 426 1152 l 1
 426 670 l 1
 713 670 l 1
 755 790 l 1
 845 804 l 1
 818 412 l 1
 730 398 l 1
 700 578 l 1
 426 578 l 1
 423 122 l 1
 661 83 l 1
 648 0 l 1
 57 0 l 1
 65 74 l 1
 232 121 l 1
 232 1126 l 1
 50 1168 l 1
EndSplineSet
Colour: ffffff
EndChar

StartChar: G
Encoding: 71 71 63
Width: 1276
VWidth: 1691
Flags: HW
LayerCount: 2
Fore
SplineSet
61 578 m 0
 61 1007 385 1260 717 1260 c 0
 894 1260 1040 1225.92 1139 1173 c 5
 1105 851 l 5
 1018 866 l 5
 992 1057 l 5
 946 1098.96 824 1161 667 1161 c 0
 470 1161 276 1013 276 647 c 0
 276 350 454 77 771 77 c 0
 851 77 915 103 943 119 c 1
 943 434 l 1
 707 472 l 1
 719 555 l 1
 1275 555 l 1
 1263 480 l 1
 1139 439 l 1
 1139 79 l 1
 1007 0 858 -31 658 -31 c 0
 256 -31 61 237 61 578 c 0
EndSplineSet
Colour: ffffff
EndChar

StartChar: H
Encoding: 72 72 64
Width: 1416
VWidth: 1691
Flags: W
HStem: 0 80<65 98.954 565.888 598 888 921.751 1386.38 1421> 589 103<427 1054> 1168 76<61 112.123 531.62 595 882 933.464 1353 1416>
VStem: 232 195<121 589 692 1126> 1054 195<121 589 692 1126>
LayerCount: 2
Fore
SplineSet
50 1168 m 1
 61 1244 l 1
 605 1244 l 1
 595 1168 l 1
 427 1130 l 1
 427 692 l 1
 1054 692 l 1
 1054 1126 l 1
 871 1168 l 1
 882 1244 l 1
 1428 1244 l 1
 1416 1168 l 1
 1249 1130 l 1
 1249 114 l 1
 1431 80 l 1
 1421 0 l 1
 878 0 l 1
 888 74 l 1
 1054 121 l 1
 1054 589 l 1
 427 589 l 1
 427 114 l 1
 611 80 l 1
 598 0 l 1
 57 0 l 1
 65 74 l 1
 232 121 l 1
 232 1126 l 1
 50 1168 l 1
EndSplineSet
Colour: ffffff
EndChar

StartChar: I
Encoding: 73 73 65
Width: 601
VWidth: 1691
Flags: W
HStem: 0 80<65 98.9539 562.623 597> 1168 76<61 112.123 531.243 595>
VStem: 232 194<121 1126>
LayerCount: 2
Fore
SplineSet
50 1168 m 1
 61 1244 l 1
 605 1244 l 5
 595 1168 l 1
 426 1130 l 1
 426 114 l 1
 607 80 l 1
 597 0 l 1
 57 0 l 1
 65 74 l 1
 232 121 l 1
 232 1126 l 1
 50 1168 l 1
EndSplineSet
Colour: ffffff
EndChar

StartChar: J
Encoding: 74 74 66
Width: 592
VWidth: 1691
Flags: HW
LayerCount: 2
Fore
SplineSet
-4 -237 m 1
 151 -90 232 37 232 197 c 2
 233 1126 l 1
 52 1168 l 1
 62 1244 l 1
 607 1244 l 1
 597 1168 l 1
 427 1130 l 1
 426 385 l 2
 425 -24 337 -138 50 -326 c 1
 -4 -237 l 1
EndSplineSet
Colour: ffffff
EndChar

StartChar: K
Encoding: 75 75 67
Width: 1228
VWidth: 1691
Flags: HW
LayerCount: 2
Fore
SplineSet
47 1168 m 1
 61 1244 l 1
 611 1244 l 1
 601 1168 l 1
 429 1121 l 1
 429 124 l 1
 618 80 l 1
 607 0 l 1
 54 0 l 1
 64 74 l 1
 236 129 l 1
 236 1117 l 1
 47 1168 l 1
453 626 m 1
 481 654 574 758 605 798 c 2
 851 1121 l 1
 696 1168 l 1
 704 1244 l 1
 1197 1244 l 1
 1185 1168 l 1
 1008 1121 l 1
 635 653 l 1
 862 385 l 2
 1013 206 1085 123 1213 83 c 2
 1250 70 l 1
 1240 1 l 1
 1194 -15 1149 -21 1109 -21 c 0
 942 -21 820 104 706 261 c 2
 454 605 l 1
 453 626 l 1
EndSplineSet
Colour: ffffff
EndChar

StartChar: L
Encoding: 76 76 68
Width: 1065
VWidth: 1691
Flags: HW
LayerCount: 2
Fore
SplineSet
58 0 m 5
 67 74 l 5
 233 121 l 5
 233 1117 l 5
 45 1168 l 5
 58 1244 l 5
 608 1244 l 5
 598 1168 l 5
 427 1121 l 5
 427 96 l 5
 869 96 l 5
 1000 344 l 5
 1085 331 l 5
 1048 0 l 5
 58 0 l 5
EndSplineSet
Colour: ffffff
EndChar

StartChar: M
Encoding: 77 77 69
Width: 1664
VWidth: 1691
Flags: HW
HStem: 0 74<35 85.9386 451.413 504 1139 1189.63 1608.77 1664> 1168 76<102 154.464 1544.62 1608>
DStem2: 202 121 334 114 0.072446 0.997372<2.58126 857.904> 583 1050 397 967 0.344078 -0.938941<13.9336 782.148> 845 313 868 50 0.370887 0.928678<0 791.555> 1440 1130 1249 1004 0.0511142 -0.998693<116.072 1000.78>
LayerCount: 2
Fore
SplineSet
24 0 m 1
 35 74 l 1
 202 121 l 1
 275 1126 l 1
 92 1168 l 1
 102 1244 l 1
 505 1244 l 1
 583 1050 l 1
 845 313 l 1
 1152 1083 l 1
 1223 1244 l 1
 1618 1244 l 1
 1608 1168 l 1
 1440 1130 l 1
 1492 114 l 1
 1674 80 l 1
 1664 0 l 1
 1128 0 l 1
 1139 74 l 1
 1305 121 l 1
 1249 1004 l 1
 868 50 l 1
 740 31 l 1
 397 967 l 1
 334 114 l 1
 517 80 l 1
 504 0 l 1
 24 0 l 1
EndSplineSet
Colour: ffffff
EndChar

StartChar: N
Encoding: 78 78 70
Width: 1337
VWidth: 1691
Flags: W
HStem: 0 80<65 98.9539 498.133 532> 1168 76<61 101.16 881 932.147 1280 1343>
VStem: 232 128<121 961> 1054 122<274 1126>
LayerCount: 2
Fore
SplineSet
50 1168 m 1
 61 1244 l 1
 411 1244 l 1
 1054 274 l 1
 1054 1126 l 1
 869 1168 l 1
 881 1244 l 1
 1356 1244 l 1
 1343 1168 l 1
 1176 1130 l 1
 1176 1 l 1
 1023 -30 l 1
 360 961 l 1
 360 114 l 1
 543 80 l 1
 532 0 l 1
 57 0 l 1
 65 74 l 1
 232 121 l 1
 232 1117 l 1
 50 1168 l 1
EndSplineSet
Colour: ffffff
EndChar

StartChar: O
Encoding: 79 79 71
Width: 1322
VWidth: 1691
Flags: W
HStem: -27 106<524.151 869.468> 1176 96<470.169 820.972>
VStem: 61 222<381.135 879.357> 1062 222<372.174 858.962>
LayerCount: 2
Fore
SplineSet
61 619 m 0
 61 1004 308 1272 706 1272 c 0
 1068 1272 1284 970 1284 619 c 0
 1284 274 1051 -27 636 -27 c 0
 291 -27 61 257 61 619 c 0
283 676 m 0
 283 382 398 79 686 79 c 0
 990 79 1062 330 1062 573 c 0
 1062 856 945 1176 658 1176 c 0
 358 1176 283 937 283 676 c 0
EndSplineSet
Colour: ffffff
EndChar

StartChar: P
Encoding: 80 80 72
Width: 1009
VWidth: 1691
Flags: HW
LayerCount: 2
Fore
SplineSet
50 0 m 1
 61 74 l 1
 228 121 l 1
 228 1104 l 1
 57 1134 l 1
 67 1211 l 1
 196 1230 372 1255 543 1255 c 0
 804 1255 1045 1184 1045 892 c 0
 1045 655 827 494 584 494 c 0
 548 494 515 496 484 497 c 1
 466 580 l 1
 519 581 l 2
 734 587 838 678 838 856 c 0
 838 1027 750 1172 522 1172 c 0
 482 1172 420 1166 420 1166 c 1
 420 122 l 1
 657 83 l 1
 643 0 l 1
 50 0 l 1
EndSplineSet
Colour: ffffff
EndChar

StartChar: Q
Encoding: 81 81 73
Width: 1334
VWidth: 1691
Flags: HW
LayerCount: 2
Fore
SplineSet
61 608 m 0
 61 994 325 1272 721 1272 c 0
 1078 1272 1299 980 1299 629 c 0
 1299 335 1122 68 818 -6 c 1
 877 -141 963 -228 1250 -275 c 1
 1250 -299 1247 -333 1241 -351 c 1
 1179 -381 1121 -385 1065 -385 c 0
 884 -385 721 -249 703 -21 c 1
 693 -24 653 -27 638 -27 c 0
 293 -27 61 246 61 608 c 0
263 679 m 0
 263 439 369 88 749 67 c 1
 1019 134 1092 336 1092 563 c 0
 1092 857 928 1168 664 1168 c 0
 413 1168 263 989 263 679 c 0
EndSplineSet
Colour: ffffff
EndChar

StartChar: R
Encoding: 82 82 74
Width: 1213
VWidth: 1691
Flags: HW
LayerCount: 2
Fore
SplineSet
50 0 m 1
 61 74 l 1
 228 121 l 1
 228 1100 l 1
 57 1130 l 1
 67 1207 l 1
 214 1230 375 1253 523 1253 c 0
 820 1253 1025 1176 1025 943 c 0
 1025 814 926 666 738 599 c 1
 738 598 l 1
 918 349 l 2
 1035 187 1087 114 1211 77 c 2
 1244 67 l 1
 1229 -1 l 1
 1186 -16 1146 -21 1109 -21 c 0
 950 -21 840 98 753 253 c 2
 594 537 l 1
 420 537 l 1
 420 126 l 1
 608 83 l 1
 598 0 l 1
 50 0 l 1
420 628 m 1
 618 628 l 1
 717 661 818 745 818 887 c 0
 818 1051 717 1169 540 1169 c 0
 470 1169 420 1164 420 1164 c 1
 420 628 l 1
EndSplineSet
Colour: ffffff
EndChar

StartChar: S
Encoding: 83 83 75
Width: 863
VWidth: 1691
Flags: HW
LayerCount: 2
Fore
SplineSet
46 122 m 1
 79 389 l 1
 181 375 l 1
 200 187 l 1
 239.495 130 323.971 77 426 77 c 0
 531 77 663 139 663 287 c 0
 663 547 90 544 90 916 c 0
 90 1143 282 1269 479 1269 c 0
 594.66 1269 696.397 1235 781 1169 c 5
 781 1161 739 887 739 887 c 1
 640 899 l 1
 635 1090 l 5
 614.882 1126 534.412 1185 445 1185 c 0
 345 1185 263 1126 263 995 c 0
 263 708 847 730 847 354 c 0
 847 124 630 -24 402 -24 c 0
 249.429 -24 113.81 43 46 122 c 1
EndSplineSet
Colour: ffffff
EndChar

StartChar: T
Encoding: 84 84 76
Width: 1119
VWidth: 1691
Flags: HW
LayerCount: 2
Fore
SplineSet
23 1244 m 1
 1134 1244 l 1
 1100 906 l 1
 1005 921 l 1
 967 1152 l 1
 662 1152 l 1
 662 114 l 1
 847 80 l 1
 833 0 l 1
 294 0 l 1
 301 74 l 1
 470 121 l 1
 470 1152 l 1
 175 1152 l 1
 122 909 l 1
 31 922 l 1
 23 1244 l 1
EndSplineSet
Colour: ffffff
EndChar

StartChar: U
Encoding: 85 85 77
Width: 1369
VWidth: 1691
Flags: HW
LayerCount: 2
Fore
SplineSet
22 1168 m 1
 35 1244 l 1
 577 1244 l 1
 568 1168 l 1
 399 1130 l 1
 399 510 l 2
 399 225 542 105 747 105 c 0
 949 105 1071 221 1072 482 c 2
 1075 1126 l 1
 892 1168 l 1
 902 1244 l 1
 1380 1244 l 1
 1369 1168 l 1
 1203 1130 l 1
 1198 515 l 2
 1195 155 1044 -27 697 -27 c 0
 466 -27 206 48 206 469 c 2
 206 1126 l 1
 22 1168 l 1
EndSplineSet
Colour: ffffff
EndChar

StartChar: V
Encoding: 86 86 78
Width: 1284
VWidth: 1691
Flags: HW
LayerCount: 2
Fore
SplineSet
-21 1168 m 1
 -11 1244 l 1
 527 1244 l 1
 517 1168 l 1
 347 1130 l 1
 660 251 l 1
 980 1126 l 1
 798 1168 l 1
 805 1244 l 1
 1260 1244 l 1
 1253 1168 l 1
 1121 1130 l 1
 696 4 l 1
 544 -24 l 1
 126 1126 l 1
 -21 1168 l 1
EndSplineSet
Colour: ffffff
EndChar

StartChar: W
Encoding: 87 87 79
Width: 1844
VWidth: 1691
Flags: HW
LayerCount: 2
Fore
SplineSet
-11 1168 m 1
 -2 1244 l 1
 512 1244 l 1
 497 1168 l 1
 330 1130 l 1
 572 271 l 1
 853 1194 l 1
 1029 1219 l 1
 1277 287 l 1
 1538 1126 l 1
 1357 1168 l 1
 1368 1244 l 1
 1817 1244 l 1
 1806 1168 l 1
 1683 1130 l 1
 1318 4 l 1
 1164 -24 l 1
 902 951 l 1
 617 4 l 1
 454 -24 l 1
 129 1126 l 1
 -11 1168 l 1
EndSplineSet
Colour: ffffff
EndChar

StartChar: X
Encoding: 88 88 80
Width: 1202
VWidth: 1691
Flags: HW
LayerCount: 2
Fore
SplineSet
-1 0 m 1
 11 76 l 1
 138 121 l 1
 504 615 l 1
 165 1123 l 1
 28 1166 l 1
 40 1244 l 1
 553 1244 l 1
 543 1166 l 1
 386 1121 l 1
 633 750 l 1
 904 1126 l 1
 734 1166 l 1
 747 1244 l 1
 1182 1244 l 1
 1174 1168 l 1
 1047 1130 l 1
 709 657 l 1
 1050 114 l 1
 1185 80 l 1
 1172 0 l 1
 669 0 l 1
 682 74 l 1
 842 121 l 1
 580 529 l 1
 288 117 l 1
 454 83 l 1
 439 0 l 1
 -1 0 l 1
EndSplineSet
Colour: ffffff
EndChar

StartChar: Y
Encoding: 89 89 81
Width: 1210
VWidth: 1691
Flags: HW
LayerCount: 2
Fore
SplineSet
-21 1168 m 1
 -8 1244 l 1
 500 1244 l 1
 488 1168 l 1
 330 1130 l 1
 607 640 l 1
 871 1126 l 1
 688 1168 l 1
 698 1244 l 1
 1143 1244 l 1
 1133 1168 l 1
 1008 1130 l 1
 663 529 l 1
 663 114 l 1
 826 80 l 1
 816 0 l 1
 310 0 l 1
 320 74 l 1
 470 121 l 1
 470 504 l 1
 117 1126 l 1
 -21 1168 l 1
EndSplineSet
Colour: ffffff
EndChar

StartChar: Z
Encoding: 90 90 82
Width: 1009
VWidth: 1691
Flags: HW
LayerCount: 2
Fore
SplineSet
47 104 m 1
 792 1149 l 1
 255 1149 l 1
 178 903 l 1
 88 921 l 1
 98 1244 l 1
 1026 1244 l 1
 1026 1168 l 1
 262 100 l 1
 832 100 l 1
 955 351 l 1
 1048 335 l 1
 991 0 l 1
 55 0 l 1
 47 104 l 1
EndSplineSet
Colour: ffffff
EndChar
